<?xml version="1.0" encoding="utf-8"?>
<!DOCTYPE svg PUBLIC "-//W3C//DTD SVG 1.0//EN" "http://www.w3.org/TR/2001/REC-SVG-20010904/DTD/svg10.dtd">
<svg version="1.0" xmlns="http://www.w3.org/2000/svg" width="1408px" height="786px" viewBox="0 0 1408 786" preserveAspectRatio="xMidYMid meet">
 <g fill="#14171c">
  <path d="M565.6 680.8 c-0.4 -0.3 -0.7 -4.5 -0.7 -9.2 l0 -8.5 -6.1 0 c-5.4 0 -6.1 -0.2 -6.1 -2 0 -1.6 -0.7 -2 -3.6 -2 l-3.6 0 0 10.2 0 10.2 -3.6 0 -3.7 0 0.3 -14 0.3 -14.1 26.4 -0.3 26.3 -0.2 0 3.6 c0 2.9 -0.4 3.6 -2 3.6 -1 0 -2.4 0.6 -2.8 1.3 -1.2 1.8 -6 3.8 -9.5 3.8 -2.4 0 -3.1 -0.5 -3.1 -2 0 -1.1 -0.5 -2 -1.2 -2 -0.8 0 -0.9 3.1 -0.4 11.3 l0.6 11.3 -3.4 0 c-1.9 0 -3.8 -0.3 -4.1 -0.7z"/>
  <path d="M600.9 678.4 c-1.3 -2.5 -2.5 -3.1 -5 -3.1 -3 0 -3.4 -0.3 -3.4 -2.7 0 -1.5 0.5 -4.5 1.2 -6.7 1.1 -3.9 1.2 -4 6 -4 l4.8 0 2.7 7 c1.4 3.8 2.7 8.2 2.7 9.7 0 2.5 -0.4 2.8 -3.6 2.8 -3 0 -4 -0.6 -5.4 -3.1z"/>
  <path d="M643.3 680.8 c-0.4 -0.3 -0.7 -4 -0.7 -8.2 l0 -7.5 3.6 0 c3.2 0 3.6 0.3 3.6 2.9 0 1.5 0.3 5.2 0.6 8.2 l0.7 5.3 -3.6 0 c-1.9 0 -3.9 -0.3 -4.2 -0.7z"/>
  <path d="M658.6 676.2 c-0.9 -1.2 -1.6 -2.9 -1.6 -3.6 0 -0.7 -1.2 -1.3 -2.7 -1.3 -2.7 0 -2.8 -0.1 -2 -5.3 0.3 -3 0.6 -6.4 0.6 -7.7 0 -1.6 0.6 -2.4 2 -2.4 1.3 0 2 -0.7 2 -2 0 -3.2 6.4 -2.9 9.8 0.5 2.8 2.8 2.9 4.3 0.8 19.2 -0.6 4.6 -0.7 4.8 -4 4.8 -2.5 0 -4 -0.7 -5 -2.3z"/>
  <path d="M490.4 676.7 c-2.6 -0.5 -2.9 -2.6 -1.7 -9.7 0.6 -3.6 0.9 -3.9 3.9 -3.9 1.8 0 5.7 0.7 8.7 1.6 l5.3 1.5 -0.3 5.3 -0.3 5.3 -6.7 0.1 c-3.7 0.1 -7.7 0 -8.9 -0.3z"/>
  <path d="M706 666.7 l0 -10.7 8.2 0 c10.6 0 12.3 1.3 12.3 10.2 0 5.2 -0.4 6.7 -2.6 8.7 -2.1 2.3 -3.4 2.6 -10.2 2.6 l-7.7 0 0 -10.7z m11.2 1.1 c0.9 -1.1 0.8 -1.8 -0.4 -3.1 -2.3 -2.3 -2.6 -2 -2.6 1.4 0 3.3 1.1 3.9 3 1.6z"/>
  <path d="M804.3 666.1 l0 -11.3 3.4 0 3.5 0 0.6 10.3 c0.4 5.7 0.4 10.8 0.1 11.3 -0.3 0.5 -2.1 0.9 -4.1 0.9 l-3.5 0 0 -11.3z"/>
  <path d="M672.3 670.7 l0 -5.6 8.2 0 8.2 0 0 3.6 c0 3.6 0 3.6 -4.6 3.6 -3.9 0 -4.6 0.3 -4.6 2 0 1.6 -0.7 2 -3.6 2 l-3.6 0 0 -5.6z"/>
  <path d="M623.2 668.1 c0 -6.4 1.3 -8.1 6.7 -8.1 4 0 4.7 0.4 6.1 3.1 0.8 1.6 1.5 4.4 1.5 6.1 l0 3.1 -7.2 0 -7.2 0 0 -4.2z"/>
  <path d="M885.1 668.8 c0 -2.1 0.6 -3.7 1.5 -4.1 0.8 -0.3 1.5 -1.2 1.5 -2.1 0 -1 1 -1.5 3.5 -1.5 3.7 0 4.7 1.2 4.7 5.6 0 4.8 -0.9 5.6 -6.2 5.6 l-5 0 0 -3.5z"/>
  <path d="M754.1 670.1 c0 -0.6 -0.9 -2.5 -2.1 -4.1 -1.4 -2.1 -3 -3 -5.1 -3 -2.7 0 -3 -0.3 -3 -3.1 0 -4.8 2.7 -8.2 6.5 -8.1 1.7 0 4 0.4 5.1 0.8 2.4 0.9 6.7 10.7 6.8 15.2 0 3.2 -0.1 3.3 -4.1 3.3 -2.3 0 -4.1 -0.5 -4.1 -1.1z"/>
  <path d="M900.5 663.6 l0 -7.8 8 0.3 7.9 0.3 0.3 6.1 c0.4 7.6 -0.8 8.7 -9.7 8.7 l-6.4 0 0 -7.7z"/>
  <path d="M437.1 640 c-7.8 -1.4 -22.5 -7.7 -25.4 -10.8 -2.8 -3.1 -1.4 -10.5 3.8 -21 3.4 -6.8 5 -9.2 6.8 -9.4 1.9 -0.3 1.7 -0.7 -2.4 -4.5 -5.5 -5.1 -7.6 -11.2 -7.6 -22.6 0 -10.1 1.2 -14.5 6 -20.9 7.2 -9.4 17.7 -13.6 34.4 -13.6 10.9 0 18.9 1.5 27 5.2 9 4.1 10.3 5.4 10.3 10.6 0 4.8 -8.4 24 -10.5 24 -0.7 0.1 -0.1 1 1.2 2.1 l2.5 2 2.9 -5 c3.6 -6.3 9.9 -12.1 17.2 -15.3 11.2 -5.2 33.7 -4.1 42.3 2 2.9 1.9 2.9 1.9 2.9 -0.1 0 -2 1 -2.6 6.5 -3.4 1.5 -0.2 2.4 -1.7 3.4 -6.5 1.7 -7.6 6.3 -13.5 13.4 -17 4.3 -2 6.2 -2.4 17.1 -2.3 9.6 0 13.4 0.5 17.4 2 l5.1 2 0.3 5.6 c0.2 4.3 -0.3 7 -2.3 11.2 -1.4 3.1 -2.5 5.6 -2.4 5.8 0.2 0.1 3.1 -0.5 6.3 -1.3 4.5 -1.2 9.4 -1.5 18.4 -1.2 11.1 0.4 12.9 0.7 18.3 3.4 6.3 3.2 11.7 8.8 14.6 15.5 1.5 3.4 1.8 8.1 2.1 31.9 0.3 19.4 0 28.3 -0.7 29.3 -1.1 1.4 -25.2 3 -44.1 2.9 -14.6 0 -24.1 -5.8 -28.2 -17.4 -1.3 -3.8 -1.3 -3.7 -1.4 4.2 0 12.4 0.6 12 -17.2 12 -10.4 0 -15.6 -0.4 -16.4 -1.2 -0.7 -0.7 -1.2 -3.2 -1.2 -5.6 l0 -4.4 -4.8 3.8 c-6.8 5.1 -12.1 7.3 -21.2 8.5 -15.3 2.1 -29.7 -1.6 -38.8 -10.3 l-4.6 -4.5 -3.4 4 c-8.2 9.7 -27.6 14 -47.8 10.3z m26 -13.9 c20 -7.5 22.4 -28.1 4.2 -36.7 -3.5 -1.6 -10.9 -4.4 -16.7 -6.1 -5.6 -1.6 -11.2 -4 -12.1 -5 -2.6 -2.9 -3.2 -9.2 -1.3 -13.6 1.2 -3 2.4 -4 5.5 -4.8 5.6 -1.6 17.6 -1.3 23.4 0.4 2.8 0.8 5.3 1.5 5.6 1.5 0.9 0 3.1 -5.2 2.5 -6.1 -0.3 -0.5 -3.7 -1.9 -7.5 -3.2 -10 -3.4 -19.5 -3.3 -27.1 0.4 -10.1 5 -15.9 14.1 -13.7 22.2 2.1 8.6 8.8 13.3 25.3 17.9 15.9 4.5 17.4 5.8 17.4 15.1 0 4.6 -0.4 5.9 -2.7 8 -2.4 2.3 -3.7 2.5 -13.1 2.8 -9.1 0.3 -11.6 0 -17.8 -2.1 -6.4 -2.3 -7.3 -2.4 -7.7 -0.8 -0.3 0.9 -0.8 2.4 -1.1 3.3 -0.5 1.2 0.7 2.3 5.3 4.3 11.8 5.3 22.1 6.1 31.5 2.7z m70.4 0 c3.1 -1.1 6.7 -2.9 7.8 -3.8 2.1 -1.7 2.1 -1.8 0.2 -3.6 -1.7 -1.6 -2.3 -1.6 -6.3 -0.2 -6.3 2.3 -16.8 2 -22 -0.5 -5.1 -2.5 -8 -7.2 -7.5 -12.3 l0.3 -3.6 21.9 -0.3 21.9 -0.2 -0.7 -5.3 c-2.7 -20.1 -20.9 -31.2 -37.7 -23 -23.5 11.6 -21.4 44.4 3.6 53 7 2.5 11.7 2.4 18.5 -0.2z m96.5 0.6 c4.1 -1.7 14.6 -2 14.6 -0.5 0 0.6 2.4 1 5.2 1 l5.2 0 -0.4 -19.6 c-0.3 -17.9 -0.5 -20.2 -2.6 -23.9 -5.2 -9.7 -16.2 -14.9 -27.4 -12.9 -3.4 0.5 -7.9 1.7 -9.9 2.7 -3.4 1.4 -3.7 1.9 -3 3.9 0.6 1.6 1.6 2.3 3.3 2 17.7 -1.8 22.3 -1.4 26.1 2.4 2 2 2.5 3.5 2.5 8.2 l0 5.6 -9.4 0 c-14.2 0 -21.1 2.7 -26.1 10.1 -5.1 7.6 -0.6 17.5 9.6 21.1 5.1 1.8 7.8 1.8 12.3 0z m-49.6 -14.5 c0.2 -8.4 0.2 -18.9 0 -23.5 l-0.3 -8.5 6.8 0 6.7 0 0 -4.1 0 -4.1 -6.7 0 -6.7 0 0 -6.4 c0 -9 1.5 -10.9 8.7 -10.9 5.3 0 5.5 -0.1 6.1 -3.2 0.4 -1.7 0.4 -3.4 0.1 -3.7 -0.3 -0.3 -2.8 -0.8 -5.5 -1.1 -11.3 -1 -19.4 7.6 -19.6 20.6 l0 4.8 -4.6 0 -4.6 0 0 4.1 0 4.1 4.6 0 4.6 0 0 23.5 0 23.5 5.1 0 5.1 0 0.2 -15z m16.6 -17.2 c1.6 -2.6 1.6 -2.6 -1.4 -2.6 l-3.1 0 0 6.4 0.1 6.3 1.3 -3.8 c0.8 -2.1 2.1 -5 3.1 -6.4z"/>
  <path d="M506 595.7 c-0.3 -0.3 -0.5 -2.6 -0.5 -5.1 0 -3.9 0.5 -5.1 4 -8.5 4 -4 4 -4 12.3 -4 12.9 0 17.5 3.6 17.5 13.7 l0 4.6 -16.4 -0.1 c-9 -0.1 -16.7 -0.4 -16.9 -0.6z"/>
  <path d="M620.5 621.1 c-3.5 -1.4 -5.5 -5.1 -5.5 -10.2 0 -8.1 2.1 -9.2 17.3 -9.2 l11.4 0 0 6.1 c0 7 -1.7 10.5 -6.2 12.9 -3.1 1.5 -13.4 1.8 -16.9 0.4z"/>
  <path d="M795.1 640.1 c-2.6 -0.7 -5.4 -1.6 -6.3 -2.1 -1.1 -0.4 -1.8 -0.3 -1.8 0.4 0 1.2 -33.2 1.6 -36.2 0.5 -0.9 -0.3 -5.1 -5.4 -9.5 -11.3 -4.3 -5.8 -8.1 -10.3 -8.4 -10 -0.3 0.3 -0.8 5.2 -1.1 10.9 l-0.5 10.4 -15.9 0.2 c-8.9 0.2 -16.6 -0.1 -17.4 -0.7 -1.3 -0.8 -1.5 -7.3 -1.8 -45.7 -0.2 -24.7 0.1 -46.7 0.5 -48.9 l0.9 -4.1 16.8 0 16.9 0 0.3 7.7 c0.3 10.6 0.6 10.9 5 5.9 2 -2.5 5.8 -6.5 8.4 -9.2 l4.6 -4.9 18.1 0 c20.5 0 21 0.2 20.1 7.2 -0.3 2.7 -1.7 5.5 -3.9 8 l-3.4 3.8 12.7 0.3 c7.2 0.1 13.2 0.7 14 1.4 1 0.8 1.3 6 1.3 22.2 0 11.7 0.5 21.8 1 22.6 0.7 1.2 1.3 1.2 2.8 0.4 1.6 -1 1.8 -3.3 2.1 -22.4 0.1 -13.6 0.6 -21.8 1.3 -22.7 0.9 -1 5.2 -1.3 17.9 -1.3 l16.8 0 0 -7.1 c0 -5.5 0.4 -7.2 1.6 -7.7 2.8 -1 31.9 -0.7 32.6 0.4 0.3 0.5 0.9 4.2 1.2 8.2 l0.6 7.2 3.9 0 4 0 0 -11.7 c0 -8.6 0.4 -11.9 1.4 -12.8 0.9 -0.8 6.5 -1.1 17.6 -0.9 l16.3 0.3 0.3 12.1 0.3 12 14.1 0 c7.9 0 14.9 0.3 15.9 0.6 1.4 0.5 1.6 3.5 1.6 21.9 0 22 0.3 24.6 2.7 24.6 2.9 0 3.5 -4.2 3.5 -24.5 0 -19.2 0.1 -20.6 1.9 -21.6 2.9 -1.5 31.1 -1.3 32.6 0.2 1.8 1.8 1.7 75.4 0 77.9 -1.1 1.4 -4.8 1.6 -29 1.9 l-27.6 0.3 -4.8 -2.9 c-2.7 -1.5 -6.1 -4.4 -7.7 -6.3 l-2.9 -3.6 -1 5.8 -1 5.9 -16.5 0.1 c-9.1 0.1 -18.9 0.7 -21.8 1.3 -15.5 3.3 -29.8 -1 -36.6 -11.2 -1.3 -1.8 -2.5 -4.6 -2.5 -6 -0.2 -4.3 -1.8 4.7 -1.8 10.3 -0.1 5.9 0.7 5.6 -20.1 6.4 -8.4 0.3 -18.5 0.7 -22.5 1 -4.3 0.3 -9 -0.1 -11.8 -0.9z m30.5 -13.2 l12.5 0.3 0 -28.1 0 -28.1 -5.6 0 -5.6 0 0 19.9 c0 19.6 0 20 -2.6 22.9 -3.6 4.3 -7.6 5.6 -15.5 5.1 -6.1 -0.4 -7.2 -0.7 -9.7 -3.7 l-3 -3.3 0 -20.5 0 -20.5 -5.7 0 -5.7 0 0.4 19.7 c0.5 21.3 1.3 25 6.8 30.8 4.6 4.9 10.1 7 16.1 6 2.9 -0.4 10.7 -0.7 17.7 -0.6z m60.5 0.2 c3.5 -1.2 3.7 -1.6 2.1 -5.4 -0.8 -2.4 -1.5 -2.7 -5.8 -2.7 -8.9 0 -9.5 -1.5 -9.5 -22.4 l0 -16.5 7.2 0 7.2 0 0 -4.1 0 -4 -6.9 -0.3 -7 -0.3 -0.3 -7.9 -0.3 -8 -5 0 -5 0 -0.3 8 -0.3 7.9 -4.3 0.3 c-4.4 0.3 -4.4 0.3 -4.4 4.4 l0 4 4.6 0 4.6 0 0 16.4 c0 21.2 1.6 25.6 10.7 29.8 4.7 2.1 8.1 2.4 12.7 0.8z m79.6 -0.1 c1.5 -0.7 4 -2 5.3 -3.1 1.3 -1 4.2 -1.8 6.3 -1.8 3.6 0 4 0.3 4 2.6 0 2.4 0.3 2.6 5.1 2.6 l5.1 0 0 -28.1 0 -28.1 -5.1 0 -5.1 0 0 16.7 c-0.1 19.4 -0.8 23.4 -5.1 27.7 -3 3.1 -3.5 3.2 -11.8 3.2 -8.1 0 -8.8 -0.2 -11.5 -2.9 l-2.9 -2.8 -0.3 -21.1 -0.3 -21 -5.3 0.3 -5.3 0.3 0.1 18.4 c0.1 22 0.9 25.6 7.1 31.7 6 6.1 13.4 8.1 19.6 5.4z m-246.3 -10.2 l0.1 -10.5 4.9 -5.4 c4.6 -5 5.3 -5.4 8.8 -5.1 4.2 0.3 2.6 -1.6 25.5 29.8 1.1 1.4 2.6 1.7 6.2 1.5 l4.8 -0.3 -13.9 -19.1 c-11.8 -16.3 -13.9 -19.7 -13.9 -22.9 0 -3.3 1.5 -5.5 12.9 -18.9 l12.8 -15.2 -4.4 0 -4.4 0 -15.8 18.4 c-15.3 17.9 -15.9 18.4 -19.7 18.4 l-3.9 0 0 -18.4 0 -18.4 -5.1 0 -5.1 0 0 38.4 0 38.4 5.1 0 5.1 0 0 -10.4z m198.5 -30 l0 -40.4 -5.6 0 -5.6 0 0 40.4 0 40.4 5.6 0 5.6 0 0 -40.4z m-25.3 17.9 c1.4 0 1.7 -1 1.7 -6.2 l0 -6.1 -4.3 0.3 -4.4 0.3 -0.3 5 c-0.4 6.5 0.2 8.2 3.2 7.4 1.2 -0.3 3.1 -0.6 4.1 -0.6z m-120.2 -26.7 l-0.3 -9.4 -6.9 8.5 c-4.2 5.1 -6.7 8.9 -6.1 9.7 0.4 0.6 3.5 4.9 6.9 9.4 l6.1 8.3 0.3 -8.6 c0.1 -4.7 0.1 -12.7 0 -17.9z"/>
  <path d="M606.8 516.2 c-0.8 -0.2 -5 -0.9 -9.2 -1.5 -17.8 -2.9 -43.1 -13.7 -59.9 -25.7 -6.1 -4.4 -7.7 -6 -7.7 -8.2 0 -1.4 5.4 -12.6 12.2 -25.1 15 -27.8 14.3 -27.5 30.7 -14.3 14.2 11.4 35.8 20.1 50.1 20.1 10.5 0 21.6 -5.5 21.6 -10.7 0 -6.2 -8.4 -10.9 -29.2 -16.4 -21.8 -5.6 -32.7 -9.4 -43.9 -15.1 -11.2 -5.6 -21.9 -14.8 -26.9 -22.8 -2.6 -4.2 -3.2 -4.6 -5.9 -4 -25.4 4.9 -57.9 -3.9 -64.1 -17.2 -1 -2.4 -1.9 -5.3 -1.9 -6.5 0 -1.3 -0.4 -2.4 -0.9 -2.4 -0.5 0 -1.1 -0.8 -1.3 -1.8 -0.4 -1.3 -2.6 -2.5 -7.3 -3.7 -13.3 -3.6 -29.5 -13 -37.9 -22 -7.5 -8 -13 -16.9 -13 -21.1 0 -2.4 0.6 -3.9 1.5 -4.3 1.1 -0.4 -0.6 -1.8 -5.2 -4.6 -16.7 -9.7 -27.1 -19.2 -35.7 -32.4 -6.5 -10.1 -9.7 -17.7 -9.7 -23.1 l0 -4.6 3.9 0 c2.3 0 6.2 0.7 9 1.5 2.8 0.8 5.2 1.5 5.4 1.5 0.2 0 -1.8 -1.7 -4.6 -3.8 -14.9 -11.3 -24.7 -22.4 -31.5 -36 -7.6 -15 -11.6 -35.7 -7.2 -37.3 5.3 -2 10.6 -0.4 20.9 6.5 3.1 2 8 5.1 10.7 6.7 l5.1 3 -8.3 -8.7 c-14.6 -15.1 -22.3 -27.3 -28.1 -44.7 -3.5 -10.2 -6.2 -27.3 -5.8 -35.6 0.3 -5.9 0.3 -6 3.5 -6.3 4.9 -0.5 9.2 1.8 19.9 10.7 19.2 16 41.3 30.1 69.1 44 30.5 15.3 56.4 25.5 104.9 41.2 42.1 13.6 51.4 17.8 62.3 28 7.1 6.8 11.6 13.4 20 29.9 7.6 15 13 21.9 19 24.4 8.7 3.5 13.8 -2.4 19.4 -22.2 4.1 -14.6 6.4 -21.1 10.8 -30 l3.9 -7.8 -3.3 -2.5 c-5.4 -4.3 -8.6 -10.8 -9.2 -18.9 l-0.5 -7.1 14.7 0.1 c14.3 0.2 15.1 0.1 30.6 -4.1 32.3 -8.7 53.4 -6.4 66.4 7.1 3.9 4 5.7 5.1 10.3 6 17.6 3.7 25 12.7 24.9 30.8 -0.1 15 -4.1 21.5 -13.1 21.5 -4.6 0 -5.9 -0.9 -7.2 -5.1 -1.3 -4.5 -3.6 -6.1 -8.4 -6.1 -5.2 0 -7 1.5 -12.5 10.6 -5.9 9.9 -5.1 20.7 2.3 26.8 2.9 2.5 3.8 2.7 9.5 2.1 12.3 -0.9 17.7 -6.3 28.2 -28.3 6.7 -13.6 14 -23.8 21.5 -29.8 10.4 -8.2 28 -15.7 61.7 -26 35.3 -10.9 73.2 -26.1 103.9 -41.5 27.3 -13.7 47.9 -26.9 67.5 -43.5 10.4 -8.7 13.9 -10.6 19.4 -10.6 l4.1 0 0 7.1 c0 4 -0.9 12.1 -2 18 -5 25.6 -13.9 42.9 -32.2 61.8 -9.2 9.6 -9.2 9.6 -4.1 6.7 2.9 -1.5 8.5 -5.1 12.7 -7.8 8.6 -5.6 10.2 -6.2 16.6 -5.7 l4.5 0.3 0.3 5 c0.4 5.8 -3.5 20.5 -8.1 30.2 -5.9 12.9 -20 29.5 -31.6 37.2 -6.1 4.2 -6.2 4.6 -0.5 2.1 2.1 -0.8 5.8 -1.4 8.5 -1.2 4.5 0.3 4.8 0.5 5.1 3.5 0.7 7.3 -8.3 24.5 -19 36.3 -6 6.7 -19.9 17.3 -27.3 21.1 -2.8 1.5 -4.5 2.9 -3.8 3.1 0.7 0.3 1.2 2.1 1.2 4.3 0 3 -1.1 5.5 -5 10.9 -10.2 14.5 -24 25.1 -41.1 31.1 -12.6 4.5 -12.7 4.6 -14.2 10.4 -1.7 7 -6.8 12.3 -15.8 16.7 -14.1 6.9 -29.1 8.9 -49.3 6.5 -6.7 -0.8 -14.3 -1.3 -16.9 -1.3 -5.3 0.1 -14.8 4.1 -23.3 9.8 l-5.2 3.6 10.2 13.5 c10.8 14.4 30.2 39.3 43 55.4 19.3 24.5 22.7 29.4 23.2 34.2 0.5 4.5 0.5 4.6 -2.9 5.2 -1.9 0.3 -18.2 0.4 -36.2 0.3 l-32.6 -0.3 -7.6 -9.2 c-5.7 -7.1 -32.9 -41.5 -47.1 -59.7 -1.1 -1.4 -1.6 -1.2 -5.3 2.4 l-4.1 4 0 9.3 c0 5 -0.3 19.2 -0.7 31.5 l-0.6 22.2 -48.4 0 c-42.7 0 -48.5 -0.2 -49.9 -1.6 -1.5 -1.4 -2 -1.4 -6.5 0 -10 3.4 -20.7 4.7 -36.3 4.6 -8.6 -0.1 -16.3 -0.3 -17.1 -0.4z m34.6 -15.3 c18.2 -3.8 35.2 -14.6 43.5 -27.8 4.2 -6.7 7.9 -18.6 7.9 -25.7 0 -12.8 -7.5 -28 -17.7 -36.2 -9.6 -7.6 -17.8 -10.7 -49.5 -19.6 -18.5 -5.2 -25.8 -8.2 -30.9 -12.4 -4.6 -4 -6.2 -8.3 -6.2 -16.7 0 -17.3 11.8 -24.7 38.9 -24.8 24.7 0 48.4 10.7 63.2 28.5 l5.1 6.1 0.5 -35.5 c0.4 -31.3 0.7 -36.6 2.7 -45.5 3.2 -14.3 7.8 -26.2 13.5 -35.1 5.5 -8.4 15.8 -19.1 21.3 -22.4 1.9 -1.1 5.1 -3.1 7.2 -4.4 9.2 -5.7 35 -10.3 42.4 -7.5 3.3 1.2 3.3 1 1.1 -3.5 -1.9 -4.2 -7.6 -8.2 -13.9 -9.9 -4.8 -1.2 -5 -1.2 -13.2 3.2 -6.8 3.7 -9.6 4.6 -15.1 5 -6.2 0.4 -7.1 0.2 -10 -2.3 -1.8 -1.5 -3.6 -3.7 -3.9 -4.7 -0.5 -1.6 -1.5 -2 -5.2 -2 l-4.6 0 0.3 -3.8 c0.2 -2.9 0.9 -4.2 2.9 -5.1 3.1 -1.5 19.2 -1.7 23.1 -0.3 1.5 0.6 3.6 0.8 4.7 0.4 2.7 -0.8 1 -2.7 -5.1 -5.6 -7.8 -3.8 -19.5 -3.4 -38.4 1.5 -8.3 2.1 -19.1 4.2 -24 4.5 l-8.8 0.7 6.3 3.4 c5.8 3.1 6.3 3.7 6.3 6.8 0 2.3 -1 4.7 -3.2 7.4 -5.3 6.7 -10.8 18.9 -15.2 33.9 -8.2 27.3 -12.1 33.8 -22.3 36.7 -7.1 2 -16.4 1.5 -23 -1.4 -8.2 -3.7 -13.6 -10.3 -23.1 -28.7 -9.7 -18.7 -15.7 -26.2 -26.1 -32.7 -9.3 -5.9 -15.1 -8.2 -56.4 -21.9 -43.9 -14.5 -72 -25.6 -97.8 -38.3 -26.9 -13.3 -47.2 -25.8 -62.4 -38.5 l-5.9 -4.9 2.5 7.2 c7.7 22.6 24 42.9 46.3 57.4 17.1 11.2 36.3 19.6 77.1 34.2 28.4 10 48.5 19.3 58.6 27 6.1 4.7 6.9 5.6 6.9 8.8 0 3.3 -0.2 3.6 -3.1 3.6 -1.6 0 -6.9 -1.5 -11.5 -3.5 -12.8 -5.2 -25.3 -8.9 -53.5 -16 -57.7 -14.2 -81.8 -22.3 -105.4 -35.4 -5.1 -2.8 -9.6 -5.2 -10.1 -5.4 -0.5 -0.2 0.3 1.8 1.9 4.6 9.9 17.1 26 31.5 46.3 41.7 18.6 9.3 34.8 13.7 75.5 20.6 33.7 5.6 44.3 8.3 58.1 14.5 7.7 3.6 7.9 3.8 7.9 7.3 l0 3.5 -5.8 -0.5 c-3.3 -0.3 -12.4 -1.4 -20.3 -2.7 -7.9 -1.1 -27.4 -2.8 -43.5 -3.7 -16.1 -0.8 -34.9 -2.4 -42 -3.2 -12.9 -1.6 -34.8 -5.8 -39.5 -7.7 -5.1 -1.8 -6.1 -1.1 -2.9 2.3 10.1 10.8 27.7 21.6 44 26.9 18.2 6 21.4 6.2 70.7 5.9 l45.2 -0.3 0.3 2.6 0.3 2.6 4.6 -3.1 c14.7 -10 33.9 -13.4 56.8 -10 l7.8 1.2 -0.3 3.7 -0.3 3.7 -7.7 0.7 c-21.5 2.1 -42 13.3 -52.1 28.5 -17.1 25.6 -7.7 54.7 22.3 69.1 7.4 3.5 19.3 7.3 43.1 13.7 13.8 3.8 22.7 8.2 27 13.6 2.9 3.7 3.2 4.7 3.5 12.8 0.3 7.8 0 9.5 -2 13.5 -3.3 6 -10.7 10.6 -20.3 12.4 -9.2 1.6 -26.9 0.6 -37.2 -2 -9 -2.4 -24.1 -9.3 -32 -14.6 l-5.3 -3.7 -6.1 11.1 c-3.5 6.1 -6.2 11.4 -6.2 11.6 0 1 13.4 9.1 22.5 13.5 22.6 10.9 49.8 15.5 69.4 11.3z m109.7 -29.9 l0 -28.4 9.8 -10.4 c9.7 -10.5 9.8 -10.5 14.6 -10.5 l4.9 0 21.3 27.4 c11.8 15 25.3 32.4 30.1 38.8 l8.8 11.5 18.2 0 c9.9 0.1 18.1 -0.1 18.1 -0.4 0 -0.3 -7.3 -9.9 -16.2 -21.3 -8.9 -11.4 -21 -26.9 -26.8 -34.5 -35.2 -45.7 -33.8 -43.7 -33.8 -47.5 0 -4 1.4 -5.6 46.4 -53.5 l21.4 -22.8 -18.3 0 -18.2 0 -30.8 33.1 c-17 18.1 -33.3 35.6 -36.2 38.9 -4.4 4.8 -5.9 5.8 -8.7 5.8 -3.2 0 -3.3 -0.1 -4 -5.3 -0.3 -3 -0.6 -27.6 -0.6 -54.8 l0 -49.4 -3.1 -3.8 c-4.8 -6.1 -7.4 -12.9 -8 -22 l-0.5 -8.2 -2.5 3 c-4.7 5.8 -9.7 14.8 -12.8 23.1 -5.8 16.2 -5.9 17.3 -5.9 91.9 0 39.9 -0.4 72.7 -1 78.7 -1.8 17.9 -7.1 30.9 -16.9 42.6 l-5.7 6.7 28.2 0 28.1 0 0 -28.3z m-218.7 -93.3 c0.5 -0.5 0.5 -4.6 0.2 -9.1 l-0.7 -8.2 -8.5 4 c-4.6 2.1 -12.2 5 -16.8 6.2 -4.5 1.3 -8.3 2.7 -8.3 3.1 0 0.9 9 3.8 15.1 4.9 5.3 1 17.6 0.4 18.9 -0.9z m364.2 0.8 c3 -0.7 7.5 -2 10 -3.2 l4.6 -2 -8.3 -2.4 c-8.6 -2.6 -19.3 -7.3 -29.4 -13 l-6 -3.4 -10.5 11.3 -10.6 11.3 16.9 0.7 c9.3 0.3 17.2 0.9 17.6 1.2 0.9 1 10 0.7 15.8 -0.5z m-377.4 -32 c2.8 -0.9 6.7 -1.6 8.7 -1.6 4.8 -0.1 7.5 -2.4 10.5 -9.2 1.4 -3.1 4.9 -8.7 7.8 -12.6 5 -6.5 5.1 -6.9 2.5 -6.2 -1.5 0.4 -11.5 2.9 -22.2 5.6 -30.2 7.7 -40.1 9.2 -62.8 9.8 l-20 0.6 2.6 2 c4.3 3.6 20.6 10.7 28 12.4 9.5 2.1 37.6 1.6 44.9 -0.8z m417.7 0.3 c8.7 -2.3 20.6 -7.6 25.4 -11.6 l3.1 -2.4 -20 -0.6 c-19.1 -0.5 -30.9 -2 -44.4 -5.5 l-6.1 -1.5 -8.4 9 c-9.8 10.5 -10.4 9.5 7.4 12.6 15.7 2.8 32.5 2.8 43.1 0z m-133 -33.8 l12.9 -13.9 36.9 -0.6 c20.3 -0.4 42.4 -0.7 49 -0.7 l12.1 0 0 3.3 c0 2.1 -0.9 4.2 -2.8 6.1 l-2.8 2.9 15.3 0 c30.5 0 51.1 -5.2 72 -18.2 7.1 -4.3 21.5 -16.9 21.5 -18.7 0 -0.4 -2.1 -0.1 -4.8 0.7 -17.7 5.4 -42.4 9.1 -72.1 10.6 -28.3 1.4 -44.6 2.9 -56.7 4.7 -5.5 0.8 -12.4 1.8 -15 2.1 l-4.9 0.6 0.3 -4 c0.3 -3.4 0.9 -4.3 4.2 -6.1 9.6 -5.3 22.9 -8.7 59.6 -14.8 28.8 -4.8 38.2 -6.9 52.4 -11.7 13.1 -4.4 32.4 -14 41.2 -20.6 11.3 -8.2 22.4 -20.9 28 -31.8 l1.6 -3.4 -13.5 7.1 c-25 13.1 -46.6 20.3 -100 33.4 -33.8 8.3 -39.3 9.9 -54.6 16 -5.4 2.3 -11.4 4 -13 4 -2.9 0 -3.1 -0.3 -3.1 -3.6 0 -3.3 0.7 -4.1 7 -8.7 12.2 -9 29.9 -17 64.3 -28.8 30 -10.1 63 -25.8 76.5 -36 15.9 -12 28.2 -26.2 35.8 -41.1 3.6 -7 8.1 -18.9 7.3 -18.9 -0.3 0 -4.3 3 -8.9 6.5 -27.7 21.3 -69.1 42.9 -114.7 59.9 -7.5 2.8 -28.4 9.9 -46.8 16 -41 13.5 -51.8 18.4 -61.3 27.9 -5.8 5.9 -8 9.2 -15.3 23.5 -12.3 24 -19.4 30.9 -34 32.6 l-5 0.6 0 28.2 0.1 28.2 9.2 -9.7 c5 -5.3 14.9 -16 22 -23.6z"/>
 </g>
 <g fill="#232a33">
  <path d="M0 392.9 l0 -392.9 704 0 704 0 0 392.9 0 392.9 -704 0 -704 0 0 -392.9z m569.1 275.1 l-0.3 -10 -4.1 0 c-2.5 0 -4 -0.5 -4 -1.2 0 -1 2.6 -1.3 9.2 -1.3 9.2 0 10.6 0.6 8 3.5 -1.1 1.1 -0.9 1.1 1 0.2 1.2 -0.6 2.3 -1.5 2.3 -2 0 -2.7 -3.5 -3.1 -21.1 -2.9 l-18.3 0.2 -0.1 11.3 0 11.3 0.3 -10.3 0.4 -10.3 7.3 -0.7 c4 -0.3 7.5 -0.4 7.9 -0.1 0.3 0.3 0 1.5 -0.7 2.6 -0.7 1.2 -0.8 2 -0.2 2 0.5 0 1 -0.4 1 -0.8 0 -0.5 2.4 -0.4 5.1 0.2 l5.1 1 0 8.3 c0 4.6 0.3 8.7 0.7 9 0.9 0.9 0.8 1.4 0.5 -9.7z m35 4.1 c-1.3 -3.5 -2.9 -6.8 -3.3 -7.2 -1.2 -1.2 -2.9 0.5 -4.1 4.3 -1.1 3.4 -1.1 3.5 0.5 1.3 2.3 -3.3 3.3 -3 5.1 1.5 1.4 3.5 3.2 6.3 3.9 6.3 0.2 0 -0.7 -2.9 -2.1 -6.3z m42.6 1 c-0.4 -5 -0.5 -5.1 -0.8 -1.4 -0.3 3.5 0.2 6.8 1 6.8 0.2 0 0.1 -2.5 -0.2 -5.3z m16.5 -0.2 c-0.9 -1.1 -0.8 -2.1 0.9 -4.9 1.1 -1.8 2 -4.4 2 -5.7 0 -2.5 -4.7 -8.1 -5.8 -7 -0.4 0.3 0.3 1.5 1.5 2.7 2.8 2.7 2.9 7.1 0.2 10.4 -1.7 2.4 -1.8 2.8 -0.3 4.8 0.8 1.2 1.7 2 2 1.7 0.3 -0.3 0.1 -1.2 -0.6 -2z m-159.9 -1.3 c0.3 -1.9 -0.5 -2.5 -5 -3.8 -3 -0.9 -5.4 -1.6 -5.5 -1.6 -0.1 0 0 1.1 0.3 2.6 0.2 1.5 0 2.6 -0.7 2.6 -0.6 0 -1.1 0.5 -1.1 1.1 0 0.5 0.4 0.8 0.8 0.5 0.4 -0.2 1.4 0 2.3 0.5 0.8 0.5 3.2 0.8 5.1 0.7 2.8 -0.2 3.7 -0.8 3.9 -2.6z m210.5 1.7 c0.3 -0.5 -0.1 -1 -0.9 -1 -1.3 0 -1.6 -1.2 -1.6 -6.1 l0 -6.1 3.4 0 c3.9 0 5.1 0.7 6.7 3.8 1.4 2.6 0.7 4.9 -2.3 8.4 l-2.1 2.5 2.3 -1.2 c4.6 -2.4 5.8 -8.9 2.4 -12.4 -1.5 -1.5 -3.4 -2 -7.2 -2 l-5.1 0 0 7.7 c0 7 0.2 7.7 1.9 7.7 1.1 0 2.4 -0.4 2.7 -1z m94.8 -7.4 c-0.3 -10.3 -1.1 -10.1 -1.1 0.2 0 4.7 0.3 8.2 0.7 7.9 0.3 -0.4 0.5 -4 0.4 -8.1z m-127.2 3 l4.8 -0.3 -5.3 -0.2 c-5.3 -0.2 -5.4 -0.1 -5.3 2.7 0.1 2.3 0.2 2.4 0.6 0.5 0.4 -1.8 1.2 -2.4 5.2 -2.7z m-48.4 -2.7 c-2.1 -4.2 -3.2 -4.6 -5 -1.9 -2.7 3.8 -2 4.9 2.5 4.9 l4.2 0 -1.6 -3z m259.7 1.6 c0.3 -0.8 0.1 -2 -0.4 -2.9 -0.7 -1.1 -0.9 -1.1 -0.9 0.3 0 0.9 -0.8 2.3 -1.7 2.8 -1.6 0.9 -1.6 1 0.3 1.1 1.2 0 2.5 -0.6 2.8 -1.3z m-232.8 -1.7 c2.8 -2.7 2.9 -4.7 0.3 -6.1 -3.2 -1.6 -3.9 -1.2 -3.4 2 0.2 1.7 -0.1 3.8 -0.8 4.6 -2 2.5 1.2 1.9 3.9 -0.5z m98.7 0 c-0.3 -1.1 -0.9 -2 -1.4 -2 -0.5 0 -0.8 -0.3 -0.7 -0.7 0.1 -0.5 -0.3 -2.3 -0.9 -4 -1.5 -4.2 -4.8 -5.1 -7 -1.8 -1.5 2.4 -1.5 2.4 1.2 1.8 2.5 -0.4 3.3 0.1 5.2 3.1 1.2 2 2.3 4.1 2.3 4.7 0 0.5 0.4 1 0.9 1 0.5 0 0.7 -0.9 0.4 -2z m153.6 0.7 c1.2 -0.9 1.7 -2.4 1.4 -4.3 -0.3 -2.9 -0.6 -3.1 -5.1 -3.4 l-4.9 -0.3 0 4.6 c0 4.6 0 4.7 3.4 4.7 1.8 0 4.2 -0.6 5.2 -1.3z m-325.3 -12.3 c1.3 -0.3 0.8 -0.5 -1.2 -0.6 -2.9 -0.1 -3.4 0.3 -3.4 2.1 0 1.9 0.1 2 1.3 0.6 0.6 -0.9 2.1 -1.8 3.3 -2.1z m-118.5 -19.2 c7.5 -2.9 11.5 -5.8 16.2 -12.1 l4 -5.4 1.5 2.4 c3 4.7 10.7 11.5 16 13.8 10.7 4.9 25.7 4.8 36.1 -0.2 6.3 -3.1 13.5 -9.5 13.5 -12.2 0 -0.9 -1.3 -3.5 -3.1 -5.6 -3.5 -4.3 -3.7 -5.1 -1.6 -5.1 0.7 0 2.6 -0.9 4.1 -2.1 2.5 -1.9 2.7 -2.7 2.7 -10.7 0 -7 0.3 -8.6 1.5 -8.6 1.3 0 1.5 3.2 1.5 22.3 0 16 0.3 22.6 1.2 23.5 0.8 0.8 5.2 1.2 13.3 1.2 10.8 0 12.1 -0.2 13.1 -1.9 0.6 -1.2 1 -10.6 1 -23.5 l0 -21.6 5.6 0 c5.4 0 5.6 -0.1 6.4 -3.3 l0.9 -3.4 2.1 4.2 2.1 4.2 -3.1 3 c-5.4 5.1 -7.5 10.2 -7.5 18.3 0 8.3 2.4 13.8 7.8 18.4 6.8 5.7 17 8.3 25.7 6.5 2.9 -0.6 11.4 -1 18.7 -0.9 10.8 0.1 13.6 -0.1 14.6 -1.4 1 -1.2 1.2 -7.4 0.9 -26.4 -0.4 -27.4 -0.7 -29 -7.4 -37.1 -8.4 -10.1 -25.5 -13.5 -43.5 -8.3 -5.2 1.4 -9.7 2.7 -10 2.7 -1.2 0 0.6 -8.2 3.3 -14.1 1.5 -3.4 2.6 -7.2 2.4 -8.5 -0.8 -6.1 -24 -9 -33.8 -4.2 -7.1 3.5 -11.7 9.4 -13.4 17 -1 4.8 -1.8 6.3 -3.4 6.5 -5.9 0.9 -6.2 1.1 -7 5.3 l-0.6 4.1 -5.3 -4.1 c-10.8 -8.2 -27.3 -9.5 -40.1 -3.2 -7.9 3.9 -15 11.3 -17.6 18.3 -1 2.7 -1.9 5 -2.1 5.2 -0.2 0.3 -1.6 -0.7 -3.2 -2.1 -4.9 -4.6 -8.3 -6.1 -21.5 -9.9 -10.2 -2.9 -13.1 -4.1 -13.3 -5.6 -0.4 -1.7 0.2 -1.8 7.7 -1.4 5.7 0.4 9.6 1.3 13.8 3.3 4.4 2 6.3 2.6 7.7 1.7 2.9 -1.5 11.2 -20.4 9.9 -22.4 -1.6 -2.8 -15.6 -9.2 -22.4 -10.3 -18.7 -3.3 -34.1 1.2 -42.6 12.5 -4.4 5.8 -6 10.7 -6 17.8 0 7.9 2.5 14.6 6.9 18.9 4.9 4.6 9.4 6.9 22.3 11.1 5.6 1.8 10.8 3.9 11.7 4.6 2.5 2.4 0.2 3.6 -6.3 3.6 -5.3 0 -7.8 -0.7 -15.2 -4.2 -4.8 -2.4 -9.6 -4 -10.4 -3.7 -1.6 0.6 -6.2 9.2 -9.3 17.4 -1.7 4.5 -1.7 5 -0.1 6.8 2.8 3.1 17.5 9.4 25.4 10.9 9.1 1.6 20.8 0.9 28.1 -1.7z m344.1 1.9 c2.6 -0.6 10.6 -1 17.9 -0.9 7.4 0.1 13.9 -0.2 14.7 -0.8 1 -0.7 1.5 -5.9 1.9 -23.5 0.3 -15.5 0.8 -22.6 1.6 -22.6 3.7 0.1 4.2 1.8 4.8 17.1 0.6 17.1 1.3 19.3 8.1 25.2 7.7 6.5 21.4 8.3 31 4 4.5 -1.9 5.1 -2 6.5 -0.7 1.2 1.3 4 1.5 13.9 1.3 l12.4 -0.3 0.9 -3.6 c0.9 -3.9 1 -92.8 0.1 -94.2 -0.8 -1.4 -26.4 -1.1 -27.8 0.3 -0.8 0.8 -1.2 5.7 -1.3 15.1 0 9.3 -0.3 13.1 -0.9 11.6 -0.8 -2 -1.7 -2.4 -7 -2.4 l-6 0 -0.6 -7.2 c-0.3 -4 -0.9 -7.7 -1.2 -8.2 -0.7 -1.2 -25 -1.4 -26.8 -0.2 -0.7 0.4 -1.3 3.8 -1.5 7.9 l-0.3 7.2 -16.2 -0.4 c-11.7 -0.2 -16.5 0 -17.6 0.9 -1.2 1 -1.5 5 -1.5 22.3 0 23.1 -0.4 24.8 -6.2 24.8 -5.7 0 -6 -1.1 -6 -24.5 0 -15.1 -0.3 -21.5 -1.2 -22.4 -1.8 -1.8 -25.8 -1.7 -27.3 0.1 -0.7 0.9 -1.2 10.2 -1.3 27.1 l-0.3 25.7 -10.7 -14.4 c-5.9 -8 -10.9 -14.8 -11.1 -15.3 -0.2 -0.5 3 -4.9 7 -9.8 15.5 -18.7 23 -28.3 23.6 -29.9 1.4 -3.5 -1 -4.1 -16.4 -4.1 l-15 0 -4.6 4.9 c-2.6 2.7 -7.6 8.2 -11.1 12.3 -3.6 4 -6.8 7.4 -7.2 7.4 -0.3 0 -0.7 -5.2 -0.9 -11.6 -0.2 -6.2 -0.7 -11.9 -1.1 -12.3 -0.4 -0.4 -6.8 -0.6 -13.9 -0.5 l-13.2 0.3 -0.9 4.1 c-0.4 2.3 -0.7 22.9 -0.5 45.8 0.3 35.7 0.5 41.9 1.8 42.7 0.8 0.6 7.3 0.9 14.3 0.8 l12.8 -0.3 0.6 -12.4 c0.6 -12.2 1.1 -14.7 3 -14.7 0.4 0 5.2 5.9 10.6 13.2 5.4 7.3 10.6 13.5 11.5 13.8 0.9 0.3 8 0.6 15.9 0.6 l14.2 0 0 -2.6 c0 -3.2 -0.1 -3.2 6.1 0 8.7 4.4 14.8 5.3 22.5 3.4z m172.1 -0.7 c13 0.1 14 -0.1 15 -1.9 1.6 -3.1 1.5 -70 -0.1 -71.6 -1.5 -1.5 -23.6 -1.6 -26.5 -0.2 -1.8 1 -1.9 2.4 -1.9 22 0 19.6 -0.1 21.1 -2 23 -2.5 2.5 -6.4 2.7 -8.6 0.4 -1.4 -1.3 -1.6 -4.9 -1.6 -23.5 0 -25.7 1.9 -23.1 -16.9 -22.7 l-12.3 0.3 -0.3 22.5 c-0.4 27.8 0 31.5 4.2 38.5 6.7 10.8 13.9 14.5 27.8 13.7 5.1 -0.3 15.6 -0.4 23.2 -0.4z m-339.9 -124.5 c4.7 -0.8 12.2 -3 16.8 -4.6 4.5 -1.6 8.4 -3 8.6 -3 0.2 0 0.1 1.1 -0.2 2.5 -0.4 1.7 -0.1 2.7 1 3.1 0.9 0.3 21.8 0.6 46.6 0.6 l44.9 0 0 -7.9 c0 -4.4 0.3 -18.5 0.6 -31.5 l0.6 -23.5 4.8 -5.3 c2.6 -2.9 5.3 -5.1 6.1 -5.1 0.8 0.1 7.4 7.8 14.6 17.1 22.2 28.3 34.7 44 39.9 50.3 l5 5.9 30.9 -0.1 c17 0 31.7 -0.3 32.6 -0.7 1.6 -0.6 1.6 -1 0.3 -3.6 -1.4 -2.8 -13.1 -18.2 -24 -31.9 -19.1 -23.7 -54.2 -69.9 -54.2 -71.1 0 -0.6 0.5 -1 1.2 -1 0.6 0 4 -1.8 7.4 -4 3.5 -2.3 9 -5.3 12.4 -7 7.3 -3.4 14.6 -3.7 33.5 -1.4 9.3 1 13.8 1.1 20.6 0.2 21.2 -2.9 35.6 -11.6 38.6 -23.4 1.5 -5.8 1.6 -5.9 14.2 -10.4 17.1 -6 30.9 -16.6 41.1 -31.1 2.8 -3.9 5 -7.5 5 -8 0 -0.4 -3.6 -0.8 -7.9 -0.8 l-8 0 11.6 -5.9 c19.9 -10 33.9 -21.9 43.9 -37.2 5.8 -9 10.1 -20.1 8.1 -20.9 -0.8 -0.3 -6.9 1.3 -13.5 3.6 -10.8 3.9 -23.9 6.4 -23.9 4.9 0 -0.4 2.9 -2.1 6.3 -3.9 22.7 -11.5 42.2 -30.2 50.9 -49.1 3.2 -6.9 8.3 -23.2 8.3 -26.6 0 -2.4 -2.1 -3.4 -5.4 -2.6 -1.3 0.3 -6 3 -10.5 5.8 -10.4 6.9 -24.3 14.1 -34.9 18.4 -8.3 3.3 -12.5 3.4 -7.5 0 1.3 -0.9 7.1 -5.3 12.8 -9.9 27.9 -22.6 41.4 -44 47.6 -75.6 2.3 -11.9 2.7 -18.9 1 -18.9 -2.4 0 -8.1 3.7 -16.4 10.6 -19.6 16.6 -40.2 29.8 -67.5 43.5 -30.7 15.5 -68.6 30.6 -103.9 41.5 -33.7 10.3 -51.3 17.8 -61.7 26 -7.5 5.9 -14.8 16.2 -21.5 29.8 -11.4 23.6 -16 27.8 -31.4 28.4 -8.3 0.4 -9.5 0.2 -12.1 -1.8 -3.6 -2.9 -5.6 -6.9 -6.9 -13.3 -1.4 -7.4 0.3 -13.8 5.8 -22.4 5 -7.9 6.2 -8.6 15.3 -8.7 6 -0.1 8.3 1.4 10.1 6.8 1.6 4.8 3.8 5.8 7.3 3.3 4.4 -3.3 6.5 -8.8 6.5 -16.8 0.1 -15 -8.2 -24.3 -24.7 -27.7 -4.6 -0.9 -6.4 -2 -10.3 -6 -5.6 -5.9 -10.8 -8.7 -20.1 -10.8 -10 -2.4 -20.4 -1.3 -39.8 3.8 -15.8 4.2 -16.8 4.4 -31 4.3 l-14.6 -0.1 0.6 4.2 c0.9 5.7 4.9 12.3 9.6 15.8 2 1.5 4.2 3.1 4.7 3.5 0.5 0.4 -0.5 3 -2.1 5.7 -5.9 9.8 -9.5 18.7 -14.6 36.7 -4.8 17.1 -8.6 22.6 -16.3 23.6 -6.1 0.8 -12.5 -1.9 -17.5 -7.6 -2.3 -2.6 -7.2 -10.7 -10.8 -18.1 -8.4 -16.5 -12.9 -23.1 -20 -29.9 -10.9 -10.2 -20.3 -14.4 -62.3 -28 -48.5 -15.8 -74.3 -25.9 -104.9 -41.2 -27.3 -13.7 -49.6 -27.9 -70.3 -44.9 -10.8 -8.9 -14.8 -10.9 -15.9 -8.3 -0.4 1 0.1 7.1 1 13.6 4.6 32 19.1 55.8 48.5 79.4 9.4 7.6 11.2 9.3 10.2 10.2 -1.6 1.6 -23.6 -8.7 -37.2 -17.6 -11.4 -7.4 -14.4 -8.8 -16.7 -8.1 -2.9 0.9 -2.7 5.6 0.6 16.1 3.6 11.5 8.3 20.4 15.7 30.2 8.8 11.7 25.4 25.2 40.2 32.6 6.8 3.4 9.4 5.5 6.8 5.5 -2.7 0 -14.8 -3.3 -26.2 -6.9 -6.3 -2 -11.8 -3.4 -12.2 -3 -1.1 1.1 2.4 9.6 7.7 18.5 9.8 16.7 30 33.3 50.7 41.6 l8.2 3.4 -8.1 0.3 c-4.4 0.2 -8.5 0.7 -8.9 1.1 -1.1 1.1 6.1 12.1 12.3 18.6 8.4 9 24.6 18.4 37.9 22 4.7 1.2 6.9 2.4 7.3 3.7 0.2 1 0.8 1.8 1.3 1.8 0.5 0 0.9 1 0.9 2.4 0.1 8.1 8.5 16 22.3 20.8 13.8 4.8 23.6 5.2 42.8 1.8 2.9 -0.5 3.4 -0.2 6.4 4.6 5.6 8.6 16 17.6 27.3 23.3 11.2 5.7 22.2 9.5 43.9 15.1 23 6 29.8 10.4 29.6 19.5 -0.2 8.8 -9.5 13.9 -25 14 -16.4 0 -38.3 -8.3 -52.5 -19.7 -4.6 -3.8 -9.4 -7.4 -10.6 -8.1 -2.6 -1.3 -1.2 -3.3 -17.9 27.6 l-8.7 16 7.6 5.3 c16.5 11.9 41.9 22.8 59.7 25.7 4.2 0.6 8.4 1.3 9.2 1.5 5.1 1 27.5 0.3 34.8 -1.1z"/>
  <path d="M905.6 663.1 c0 -2.6 0.4 -3.1 2.4 -3.1 1.3 0 2.9 0.5 3.6 1.2 1.7 1.7 -0.4 4.9 -3.4 4.9 -2.1 0 -2.6 -0.5 -2.6 -3.1z"/>
  <path d="M580.2 593 l0 -10.7 3.9 0.1 c2 0.1 2.9 0.4 1.7 0.6 -1.9 0.3 -2.1 1 -1.7 7 0.5 8.3 -0.4 13.8 -2.4 13.8 -1.2 0 -1.5 -2 -1.5 -10.7z"/>
  <path d="M895 610.3 c-1.7 -2.3 -1.9 -2.4 -6.5 -0.9 -2.7 0.8 -5.1 1.2 -5.4 0.9 -0.3 -0.3 -0.5 -5 -0.5 -10.4 l0 -9.9 7.2 -0.6 c4 -0.4 7.3 -0.5 7.5 -0.4 0.1 0.1 0.1 5.5 0 12.1 -0.3 11.5 -0.3 11.7 -2.1 9.3z"/>
 </g>
 <g fill="#fefefe">
  <path d="M494.2 676.7 c-0.8 -0.3 -2.1 -1 -2.9 -1.6 -1.9 -1.5 0.7 -2.9 3.1 -1.6 1.1 0.6 3.4 0.9 5.2 0.7 2.5 -0.2 3.4 -0.8 3.6 -2.6 0.3 -1.8 -0.4 -2.5 -4.1 -3.5 -8.8 -2.5 -11.2 -8.9 -4.2 -11.8 4.1 -1.7 10.5 -0.9 10.5 1.2 0 1 -1.3 1.4 -4.5 1.4 -2.8 0 -4.9 0.6 -5.7 1.5 -1.6 2 -0.7 3 4.6 4.6 4.5 1.4 7.7 3.8 7.7 5.6 0 0.7 -0.9 2.5 -2.1 4 -1.6 2 -3 2.7 -5.8 2.6 -2 0 -4.5 -0.3 -5.3 -0.6z"/>
  <path d="M516 673.8 c-3.4 -3.4 -3.6 -4 -3.1 -8.3 0.5 -5.3 2.7 -8.1 7.5 -9.6 7.4 -2.5 14.7 3.2 14.7 11.2 0 5.2 -5.5 10.3 -11.3 10.3 -3.6 0 -4.9 -0.6 -7.9 -3.6z m13.5 -2 c2.8 -2.7 3.2 -5.5 1.4 -9 -1.6 -3.1 -2.9 -3.8 -7.1 -3.8 -4.2 0 -5.4 0.7 -7.1 3.9 -4.2 7.9 6.3 15.3 12.7 8.9z"/>
  <path d="M542.3 666.8 l0 -10.5 7.3 -0.7 c7.9 -0.7 8.7 -0.5 7.8 1.9 -0.4 0.9 -1.9 1.5 -4.1 1.5 -3.7 0 -8.7 4.1 -7.4 6 0.3 0.6 3 1.1 5.7 1.1 6.9 0 6.2 2.4 -0.7 3.1 -4.9 0.5 -5 0.5 -5.3 4.4 -0.2 2.5 -0.8 3.8 -1.8 3.8 -1.1 0 -1.4 -2 -1.4 -10.6z"/>
  <path d="M569.6 676.7 c-0.4 -0.3 -0.7 -4.7 -0.7 -9.7 l0 -9 -3.6 0 c-1.9 0 -3.6 -0.4 -3.6 -1 0 -0.6 3.1 -1 7.1 -1 3.9 0 7.9 -0.3 8.8 -0.6 1.3 -0.5 1.6 -0.2 1.3 1.2 -0.2 1.2 -1.3 2 -3.2 2.3 -2.6 0.3 -2.8 0.7 -2.8 4.7 0 6 -1.1 13.9 -2 13.9 -0.4 0 -1 -0.3 -1.3 -0.7z"/>
  <path d="M587.2 666.7 c-3.3 -9.9 -3.6 -12.9 -1 -11.3 0.5 0.3 1.9 4 3.3 8.2 1.2 4.2 2.6 7.7 2.9 7.7 0.4 0 1.9 -3.7 3.6 -8.2 1.6 -4.6 3.4 -8.1 4.1 -7.9 0.6 0.2 2.1 3.3 3.5 7 1.3 3.6 2.8 7.5 3.2 8.6 0.6 1.5 1.3 0.3 3.2 -5.9 2.3 -7.8 4.3 -11.1 5.5 -9 0.3 0.5 -0.3 3.4 -1.3 6.4 -1.1 3 -2.8 7.6 -3.7 10.3 -0.9 2.7 -2.3 4.8 -3 4.8 -0.8 0 -2.4 -2.8 -3.6 -6.1 -3 -8.1 -5 -8.2 -7.9 -0.2 -3.2 8.8 -4.4 8.1 -8.7 -4.4z"/>
  <path d="M619.1 676.9 c0 -0.9 8.4 -19.5 9.4 -20.7 0.6 -0.7 1.4 -1.3 1.8 -1.3 1.1 0 10.6 21.4 9.9 22.1 -0.9 0.9 -3.8 -1.5 -3.8 -3.3 0 -1 -1.6 -1.4 -6.1 -1.4 -5.6 0 -6.3 0.2 -7.4 2.6 -0.9 2.1 -3.9 3.7 -3.9 2z m13.8 -10.7 c-1.8 -3.5 -4.1 -4 -5.6 -1.1 -1.7 3.4 -1.1 4.2 3.1 4.2 l4.2 0 -1.6 -3.1z"/>
  <path d="M647 666.8 l0.2 -10.8 6.2 0 c4.8 0 6.7 0.4 8.4 2 2.8 2.7 2.9 7.1 0.2 10.5 -2 2.6 -2 2.6 0 5.1 2.5 3.1 2.6 3.8 0.6 3.8 -0.8 0 -2.5 -1.4 -3.7 -3.2 -2.9 -3.9 -7.3 -3.9 -8.2 0.1 -0.3 1.4 -1.4 2.7 -2.4 2.9 -1.5 0.3 -1.7 -0.7 -1.4 -10.4z m12.2 -0.3 c4.1 -3.7 1.3 -7.8 -5 -7.3 -3.9 0.3 -3.9 0.4 -3.7 4.4 0.1 2.3 0.2 4.2 0.2 4.4 0.3 1 7 -0.1 8.5 -1.5z"/>
  <path d="M672.3 666.7 l0 -10.7 7.8 0 c5.7 0 7.7 0.3 7.4 1.3 -0.3 0.7 -2.9 1.4 -6 1.7 -5.1 0.5 -5.5 0.7 -5.8 3.4 -0.3 2.7 -0.2 2.8 4.9 2.8 6.9 0 6.5 2.5 -0.3 2.9 -4.6 0.3 -4.8 0.5 -4.8 3.4 0 3 0 3 6.1 3 4.8 0 6.1 0.3 6.1 1.5 0 1.2 -1.5 1.5 -7.7 1.5 l-7.7 0 0 -10.7z"/>
  <path d="M706 666.7 l0 -10.7 7.3 0 c6.7 0 7.5 0.2 10.2 3 4.4 4.4 4.2 10.3 -0.5 15 -3.3 3.3 -3.9 3.5 -10.2 3.5 l-6.8 0 0 -10.7z m14.8 5.1 c3.2 -3.1 3.4 -7.9 0.5 -10.7 -1.5 -1.5 -3.4 -2 -7.2 -2 l-5.1 0 0 7.7 0 7.7 4.6 0 c3.6 0 5.3 -0.6 7.2 -2.6z"/>
  <path d="M733.7 666.7 l0 -10.7 7.8 0 c5.7 0 7.7 0.3 7.4 1.3 -0.3 0.7 -2.9 1.4 -6 1.7 -5.1 0.5 -5.5 0.7 -5.8 3.4 -0.3 2.8 -0.3 2.8 5.4 2.8 7.4 0 7.3 2.4 -0.1 3.1 -4.5 0.5 -5 0.8 -5.3 3.3 -0.3 2.8 -0.2 2.8 6.1 3.1 9.1 0.4 8.1 2.3 -1.4 2.7 l-8 0.3 0 -10.8z"/>
  <path d="M762.4 675.1 c-0.5 -1.3 -2.6 -6 -4.6 -10.5 -2.3 -5.1 -3.2 -8.6 -2.6 -9.1 1.3 -1.4 2.1 -0.2 5.5 8.1 3.5 8.7 4.2 9.6 5.1 6.5 0.4 -1.3 2.1 -5.3 3.8 -9 2 -4.6 3.3 -6.2 4 -5.5 1.4 1.4 -7.1 21.8 -9 21.8 -0.7 0 -1.8 -1 -2.3 -2.3z"/>
  <path d="M780.7 666.7 l0 -10.7 7.8 0 c5.7 0 7.7 0.3 7.4 1.3 -0.3 0.7 -2.9 1.4 -6 1.7 -5.1 0.5 -5.5 0.7 -5.5 3.1 0 2.4 0.4 2.6 5.4 2.9 8.1 0.5 6.5 3.3 -1.9 3.3 -3.8 0 -4 0.2 -4 3.1 l0 3.1 6.1 0 c4.8 0 6.1 0.3 6.1 1.5 0 1.2 -1.5 1.5 -7.7 1.5 l-7.7 0 0 -10.7z"/>
  <path d="M804.3 666.7 c0 -8.9 0.3 -10.7 1.5 -10.7 1.2 0 1.5 1.7 1.5 9.2 l0 9.2 5.6 0 c4.3 0 5.6 0.3 5.6 1.5 0 1.2 -1.4 1.5 -7.2 1.5 l-7.2 0 0 -10.7z"/>
  <path d="M828.6 675.8 c-3.2 -1.6 -5.9 -6.2 -5.9 -9.8 0 -3.9 3.6 -8.7 7.6 -10 7.6 -2.5 14.9 2.8 14.9 10.4 0 3.3 -0.7 4.8 -3.5 7.6 -3.9 3.9 -8.3 4.5 -13.1 1.8z m10.9 -4 c3 -2.9 3.3 -7.2 0.9 -10.5 -1.3 -1.9 -2.4 -2.4 -6.2 -2 -8.2 0.5 -11.1 7.7 -5.2 13.1 3.1 2.8 7.5 2.7 10.5 -0.5z"/>
  <path d="M852.4 666.8 l0 -10.8 6.5 0 c7.4 0 10.3 1.6 11.5 6.3 0.9 4.3 -4.1 9 -9.7 9 -3.7 0 -4.1 0.3 -4.4 2.8 -0.2 1.7 -1 3 -2 3.2 -1.6 0.3 -1.8 -0.7 -1.8 -10.4z m13.2 0 c0.7 -0.8 1.1 -2.8 0.9 -4.4 -0.3 -2.7 -0.7 -2.9 -5.1 -3.2 l-4.9 -0.3 0 4.6 0 4.7 4 0 c2.1 0 4.5 -0.6 5.1 -1.4z"/>
  <path d="M876.9 666.9 c0 -5.8 0.2 -10.8 0.4 -11.1 0.2 -0.2 3.7 -0.2 7.8 -0.1 8.8 0.4 9.4 2.5 0.9 3.3 -5.1 0.5 -5.5 0.7 -5.8 3.4 -0.3 2.8 -0.3 2.8 5.4 2.8 7.4 0 7.3 2.4 -0.1 3.1 -4.6 0.5 -5 0.7 -5.3 3.4 -0.3 2.8 -0.3 2.8 5.8 2.8 4.9 0 6.2 0.3 6.2 1.5 0 1.2 -1.5 1.5 -7.7 1.5 l-7.7 0 0 -10.5z"/>
  <path d="M900.5 666.7 l0 -10.7 6.5 0 c5.9 0 6.9 0.3 8.7 2.7 2.7 3.5 2.7 5.5 0 9 -2.3 2.8 -2.1 3.6 0.7 7.6 1.6 2.1 1.5 2.3 -0.4 2.3 -1.3 0 -2.9 -1.2 -4 -3.1 -1.4 -2.5 -2.5 -3.1 -5.1 -3.1 -3.1 0 -3.4 0.3 -3.4 3.1 0 2 -0.5 3.1 -1.5 3.1 -1.2 0 -1.5 -1.8 -1.5 -10.7z m11.7 0.2 c1.2 -0.9 1.7 -2.4 1.4 -4.3 -0.3 -2.9 -0.6 -3.1 -5.1 -3.4 l-4.9 -0.3 0 4.6 c0 4.6 0 4.7 3.4 4.7 1.8 0 4.2 -0.6 5.2 -1.3z"/>
  <path d="M437.2 629.8 c-5.7 -1.5 -15.1 -5.9 -16.1 -7.6 -0.3 -0.5 0.8 -4 2.5 -7.7 l3.2 -6.9 2.8 2 c9.1 6.4 28 8.3 33.4 3.3 4.3 -4 3.2 -9.9 -2.4 -12.8 -1.5 -0.8 -7.1 -2.8 -12.4 -4.2 -17.3 -4.8 -23.1 -9.3 -25.7 -19.2 -2.7 -10.8 2.9 -21.4 14.2 -27 5.2 -2.6 6.9 -2.9 16.1 -2.9 10.4 0 20.7 2.5 25.6 6.1 1.9 1.5 1.9 1.6 -1.3 8.2 l-3.2 6.5 -5.7 -2.6 c-6.9 -3.2 -15.8 -4.2 -21.8 -2.6 -3.5 1 -4.7 1.9 -5.7 4.4 -2.9 6.7 -0.2 9.2 14.5 13.6 21.5 6.5 26.8 11.2 27.6 23.7 0.8 12.1 -4.7 20.3 -16.6 24.8 -7 2.6 -20.6 2.9 -29 0.6z"/>
  <path d="M511.9 629.5 c-7.6 -2.7 -13.9 -8.3 -17.3 -15.3 -2.6 -5 -2.9 -7.1 -2.9 -15 0 -7.2 0.4 -10.2 2 -13.9 3.2 -6.8 8 -11.7 14.5 -14.9 5 -2.5 7.1 -2.9 14.5 -2.9 7.9 0 9.2 0.3 14.3 3.2 9.9 5.5 15.3 16 15.3 29.1 l0 5.1 -21.4 0 c-13.2 0 -21.7 0.4 -22.1 1 -1.2 1.9 3.1 7.2 7.5 9.3 5.5 2.8 12.5 2.3 19.3 -1.3 l4.9 -2.5 4.3 5.1 4.3 5.2 -2.3 1.8 c-1.2 1 -4.8 3.1 -7.9 4.6 -7.5 3.6 -19.4 4.2 -27.3 1.4z m24.3 -37.7 c0 -2.9 -3.1 -7.6 -6.1 -9.1 -1.6 -0.8 -5.3 -1.5 -8.1 -1.5 -4.3 0 -5.7 0.5 -8.7 3.2 -3.5 3.1 -5.3 6.2 -4.4 7.8 0.3 0.5 6.5 0.9 13.9 1 11.3 0.1 13.4 -0.1 13.4 -1.3z"/>
  <path d="M614.7 629.8 c-7.8 -2.8 -12.3 -9.1 -12.3 -17.4 0 -8 3.6 -13.3 11.6 -17.5 2.7 -1.3 6.5 -1.9 15.1 -2.3 11.4 -0.4 11.5 -0.4 11.5 -3 0 -8 -14.1 -11.1 -25.2 -5.4 -2 1.1 -3.9 1.9 -4 1.7 -0.1 -0.1 -1.6 -3.1 -3.4 -6.5 l-3.2 -6.2 6.9 -2.8 c18.2 -7.4 36.4 -3.1 43.5 10.1 2 3.9 2.3 5.9 2.6 27 l0.4 22.7 -8.3 0 c-4.8 0 -8.3 -0.4 -8.3 -1 0 -1.5 -4.3 -1.2 -8.5 0.5 -4.6 1.9 -13.2 1.9 -18.4 0z m19.6 -12.2 c3.7 -1.9 6.2 -5.9 6.2 -9.8 l0 -3.1 -8.2 0 c-9.2 0 -13.1 1.3 -13.9 4.8 -1.7 6.8 8.4 11.9 15.9 8.1z"/>
  <path d="M795.6 629.5 c-5.1 -2.5 -9.1 -6.7 -11.4 -12 -1.5 -3.4 -1.9 -8.1 -2.3 -26.8 l-0.4 -22.8 8.8 0 8.8 0 0 20.4 c0 20.4 0 20.4 2.7 23.5 4.7 5.6 12.6 5.5 18.5 -0.4 l3.4 -3.4 0 -20.1 0 -20.1 8.7 0 8.7 0 0 31.3 0 31.3 -12.5 -0.2 c-7 -0.1 -16.3 0.1 -20.8 0.4 -6.9 0.6 -8.8 0.4 -12.3 -1.2z"/>
  <path d="M870.3 629.4 c-9.1 -4.2 -10.7 -8.6 -10.7 -29.8 l0 -16.4 -4.5 0 c-2.6 0 -4.8 -0.4 -5.1 -0.9 -0.3 -0.5 -0.3 -3.7 0 -7.1 l0.7 -6.2 4.2 -0.3 4.2 -0.3 0.3 -7.9 0.3 -8 8.1 0 8.1 0 0.3 8 0.3 7.9 7 0.3 6.9 0.3 0 7.1 0 7.2 -7.2 0 -7.2 0 0 13.3 c0 7.9 0.5 14.2 1.2 15.9 1.3 3 4.5 4.1 9.4 3.3 3.3 -0.5 3.5 -0.4 5.6 5 1.3 3 1.9 5.9 1.6 6.7 -2.6 4 -16.6 5.3 -23.5 2z"/>
  <path d="M950.8 630.2 c-4.9 -1.4 -12.1 -9 -13.6 -14.4 -0.8 -2.9 -1.3 -12 -1.3 -25.9 l-0.1 -21.5 8.4 -0.3 8.4 -0.3 0.3 21 0.3 21.1 2.9 2.8 c2.4 2.5 3.7 2.9 8.4 2.9 4.9 0 6 -0.4 8.7 -3.2 4.3 -4.3 5 -8.3 5.1 -27.7 l0 -16.7 8.2 0 8.2 0 0 31.2 0 31.2 -8.2 0 c-8.1 0 -8.2 0 -8.2 -2.6 0 -3.1 -0.9 -3.2 -4.2 -0.7 -1.3 1 -3.8 2.4 -5.3 3.1 -3.4 1.4 -13 1.4 -17.9 0.1z"/>
  <path d="M566.9 606.8 l0 -23.5 -4.6 0 -4.6 0 0 -7.2 0 -7.2 4.6 0 4.6 0 0 -4.8 c0.2 -13.1 7.7 -20.8 20.3 -21 4.4 0 14.5 1.8 14.5 2.7 0 0.1 -1.1 2.9 -2.5 6.1 l-2.6 6.1 -5 -0.3 c-4.3 -0.2 -5.3 0.1 -6.8 2.1 -0.9 1.2 -1.6 3.8 -1.6 5.6 l0 3.4 6.7 0 6.7 0 0 7.2 0 7.2 -6.7 0 -6.7 0 0 23.5 0 23.5 -8.2 0 -8.2 0 0 -23.5z"/>
  <path d="M706 588.9 l0 -41.4 8.2 0 8.2 0 0 18.4 c0 10.1 0.4 18.4 0.8 18.4 0.5 0 8 -8.3 16.7 -18.4 l15.8 -18.4 9.5 0 c5.7 0 9.4 0.4 9.2 1 -0.1 0.5 -6.8 8.6 -14.6 18 -7.9 9.3 -14.4 17.4 -14.6 17.8 -0.2 0.5 6.8 10.6 15.3 22.5 8.6 11.9 15.9 22 16 22.5 0.2 0.6 -3.7 1 -9.7 1 l-10 0 -9.7 -13.5 c-5.3 -7.4 -10.7 -14.6 -12 -16.1 l-2.3 -2.7 -5.1 5.6 -5.1 5.6 -0.1 10.5 0 10.4 -8.2 0 -8.2 0 0 -41.4z"/>
  <path d="M903.5 586.8 l0 -43.5 8.7 0 8.7 0 0 43.5 0 43.5 -8.7 0 -8.7 0 0 -43.5z"/>
  <path d="M603.2 503.9 c-17.8 -3.2 -35.7 -10.4 -52 -21.1 l-7.9 -5.2 1.9 -3.2 c2.8 -4.4 14.3 -25.4 14.7 -26.5 0.2 -0.6 3.3 1.1 6.9 3.9 38 27.9 90.8 25.7 88.8 -3.8 -0.8 -11.1 -9.3 -17.6 -30.5 -23.3 -44.4 -12 -56.5 -17.9 -66.4 -32.7 -5.5 -8.3 -7.7 -15.8 -7.7 -26.6 0 -21.2 11.1 -38.7 31.1 -49 9.8 -5.1 20 -8.2 29.4 -9 4.2 -0.3 7.8 -0.9 8 -1.3 0.6 -1 -13.3 -3.1 -20.6 -3.1 -20.8 0 -38.9 8.6 -50.2 23.8 -2.6 3.5 -5.8 8.9 -7.3 12 -3.1 6.9 -5.7 9.1 -10.5 9.2 -2 0 -5.9 0.7 -8.7 1.6 -3.5 1.2 -10.3 1.8 -23.1 2.1 -22.8 0.6 -30.7 -0.7 -45.3 -7.9 -9 -4.4 -20 -12.2 -20 -14.1 0 -0.4 10.4 -0.7 23.3 -0.8 26.7 -0.1 34.2 -1.2 72.3 -11.2 l21.5 -5.5 -45.5 0.2 c-39.8 0.2 -46.7 0 -54.2 -1.5 -19.7 -4.1 -37.3 -11.9 -50.4 -22.2 -9.9 -7.9 -21.5 -21.6 -19.7 -23.3 0.3 -0.3 3 0.4 5.9 1.6 20.1 8.1 47 12.4 93.9 14.9 24.8 1.3 43.4 3.3 60.4 6.1 3.2 0.5 3 0.3 -2.4 -2.6 -12.2 -6.5 -25.7 -10 -60.3 -15.9 -42.6 -7.2 -58 -11.5 -78 -21.8 -22.2 -11.5 -39.6 -29 -47.8 -48.2 -4.6 -10.8 -4 -11.5 5.1 -5.3 8.3 5.6 23.4 13.6 34.9 18.3 19 7.9 38.9 13.7 86.5 25.6 25.6 6.4 43.5 12 55.1 17 12.3 5.4 -8.2 -9 -23.3 -16.3 -7.3 -3.6 -24.6 -10.4 -38.4 -15.3 -40.7 -14.5 -60 -23 -77.1 -34.2 -23 -15 -39.7 -36.2 -47.1 -60 -2.8 -8.8 -4.3 -16.9 -3.4 -16.9 0.3 0 4.9 3.6 10 8 35.9 30.1 82.7 52.8 164 79.8 41.2 13.7 47.1 16 56.4 21.9 10.2 6.4 16.5 14.1 25.5 31.5 9.2 17.9 12.9 23.1 19.4 27.4 7.1 4.7 14.1 5.9 21.2 3.9 10.2 -3 14.1 -9.4 22.3 -36.7 4.4 -14.9 9.9 -27.2 15.2 -33.9 1.7 -2.1 3.2 -4.1 3.2 -4.3 0 -0.1 -2.8 -1.7 -6.2 -3.6 -5.1 -2.8 -11.2 -8.3 -11.2 -10.2 0 -0.2 4.9 -0.4 11.1 -0.4 9.4 -0.1 13.1 -0.6 26.3 -4.1 13.9 -3.7 16.5 -4.1 27.6 -4 9.3 0 13.2 0.4 16.1 1.7 4.2 1.8 11.1 7.6 11.1 9 0 0.5 -2 1.9 -4.6 3.2 -4.5 2.3 -4.7 2.3 -9.7 0.4 -6.4 -2.4 -17.5 -1.9 -20.2 0.7 -1.6 1.6 -1.5 1.7 3 1.7 3.9 0 4.9 0.4 5.4 2 0.3 1 2 3.2 3.8 4.7 4.3 3.6 8.7 2.9 20.5 -3.5 l9 -4.8 6.9 1.8 c3.9 1 8.7 3 10.7 4.4 6 4.3 9.2 13.3 7.3 20.9 l-1 3.6 -1.7 -3.4 c-2.6 -4.9 -7.1 -6.5 -16.2 -5.7 -8.6 0.8 -21.2 4.5 -26.5 7.8 -2 1.3 -5.2 3.3 -7.2 4.4 -5.5 3.3 -15.8 14 -21.3 22.4 -5.7 8.8 -10.3 20.8 -13.5 35.1 -2 9.1 -2.3 13.9 -2.7 50.8 l-0.5 40.7 -3.5 -5.9 c-8.3 -13.6 -18.9 -23.3 -33.7 -30.5 -16.4 -8.1 -33.3 -10.5 -49 -7.2 -12.8 2.7 -19.7 8.9 -20.8 18.4 -1 9 3.8 15.8 14.8 20.7 3.1 1.3 13 4.5 22 7.1 31.7 8.9 39.9 12.1 49.5 19.6 15.6 12.3 21.9 35.9 15.1 56.1 -3.2 9.4 -6.4 14.7 -13.4 21.5 -9.3 9.1 -21.5 15.5 -35.4 18.3 -9 1.9 -30.3 1.8 -41.2 -0.1z"/>
  <path d="M692.9 494 c13.1 -13 19.1 -26.4 21.3 -47 0.6 -6 1 -38.8 1 -78.7 0 -74.6 0.1 -75.7 5.9 -91.9 4 -10.8 9.2 -19.2 16.9 -27.4 5.7 -6.1 9.9 -8.6 8.5 -5 -0.3 0.9 -1.3 4.2 -2.3 7.4 -2.8 9.4 -0.2 20.5 6.8 29.2 l3.1 3.8 0.1 50.4 c0 27.7 0.4 52.5 0.7 54.9 l0.7 4.5 5.5 -6 c3 -3.3 19.3 -20.9 36.3 -39 l30.8 -33.1 23.9 0 23.9 0 -2.5 2.8 c-1.3 1.5 -12.2 13.2 -23.9 25.9 -26.1 27.9 -43.6 47 -45.4 49.3 -1.4 1.8 -1.8 1.2 23.9 34.6 33.6 43.3 54.9 70.6 55.8 71.1 3.4 2 -1 2.6 -22.7 2.5 l-23.8 0 -8.8 -11.5 c-32.3 -42.4 -51.6 -66.2 -53.2 -66.2 -0.9 0 -6.1 4.7 -11.6 10.5 l-9.8 10.4 0 28.4 0 28.3 -34.9 0 -34.8 0 8.5 -8.4z"/>
  <path d="M838.4 379.5 c17.4 -19.1 27.9 -30.4 28.5 -30.5 0.3 -0.1 3.1 1.5 6.1 3.5 12.6 8.4 31.9 16.1 46.3 18.4 l4 0.7 -4 2.3 c-12.1 6.8 -22.8 9.3 -36.2 8.4 -30.7 -2 -33.2 -2 -40.5 0.3 -3.9 1.2 -7.8 2.6 -8.6 2.9 -0.8 0.3 1.2 -2.4 4.4 -5.9z"/>
  <path d="M509.9 381.7 c-6.3 -1.1 -14.8 -4.3 -19.6 -7.3 -2.8 -1.6 -3.2 -2.4 -2 -3.1 0.8 -0.5 2.5 -0.9 3.6 -0.9 4.7 0 21 -5.5 32 -10.8 6.3 -3 11.8 -5.5 11.9 -5.5 0.2 0 0.3 4 0.3 9 -0.1 4.9 0.2 10.8 0.6 13.1 0.6 3.6 0.4 4.4 -1.1 4.9 -3.1 1.2 -19.9 1.6 -25.6 0.6z"/>
  <path d="M769.5 321.7 l0 -34.9 5 -0.6 c14.5 -1.7 21.7 -8.6 34 -32.6 14.9 -29.3 20.3 -32.8 76.6 -51.5 54.2 -17.9 75.6 -26.4 108.6 -43.1 25.5 -12.9 51.5 -30 65.7 -43.3 2.7 -2.5 5 -4.3 5.3 -4.1 0.8 0.8 -4.2 19.5 -7 26.1 -7.7 18.2 -20.6 34 -39.3 48.3 -13.4 10.1 -46.5 25.8 -76.4 35.9 -33.3 11.5 -47.5 17.5 -60.6 26.3 -10.9 7.3 -12.8 9.4 -5.4 6.4 15.8 -6.3 27.9 -10 57.9 -17.4 63.7 -15.8 91.2 -25.8 117.6 -43 4.3 -2.9 8 -4.9 8.3 -4.6 0.3 0.2 -1.3 4.5 -3.5 9.5 -9.8 22.3 -24.6 36.9 -49.7 49.5 -21.5 10.8 -34.9 14.6 -78 21.9 -15.1 2.6 -29.3 5.1 -31.2 5.6 -10.8 2.8 -13.4 3.5 -20.2 6.3 -9.2 3.8 -11.6 6 -5 4.8 11.5 -2.1 30.4 -4.1 48.7 -5 49.5 -2.5 71.4 -5.6 96 -13.8 5.8 -1.9 11.1 -3.6 11.6 -3.6 1.5 0 -4.9 8.7 -12.2 16.5 -10.6 11.4 -29.7 22.4 -45.7 26.5 -14.5 3.8 -26.8 5.1 -46.8 5.1 -10.4 0 -19.9 -0.3 -20.8 -0.6 -1.3 -0.6 -0.7 -1.7 3.8 -6.2 l5.4 -5.6 -46 0.7 -46 0.7 -3 3.2 c-1.6 1.8 -12.1 13 -23.2 24.9 -11.2 11.9 -21.2 22.7 -22.3 24 l-2 2.5 -0.1 -34.9z"/>
  <path d="M894 350.5 c-12.5 -2.1 -23.2 -4.7 -23.2 -5.4 0 -0.4 5 -5.9 11.1 -12.4 l10.9 -11.7 11.3 2.7 c20.5 4.8 25.6 5.3 49.4 5.3 l22.9 0 -5 4.4 c-7.1 6.2 -17 12 -26.4 15.1 -7.5 2.6 -9.7 2.9 -25.6 3.1 -11.4 0.2 -20.2 -0.2 -25.4 -1.1z"/>
 </g>
</svg>